<svg width="32" height="33" viewBox="0 0 32 33" fill="none" xmlns="http://www.w3.org/2000/svg">
<g clip-path="url(#clip0_30_51)">
<path d="M2.8811 0.145233C1.52639 0.444862 0.380094 1.64976 0.0919883 3.07141C-0.0428698 3.74079 -0.0428698 28.9862 0.0919883 29.6556C0.380094 31.09 1.53252 32.2885 2.91175 32.5882C3.55539 32.7284 27.8298 32.7284 28.4735 32.5882C29.8527 32.2885 31.0051 31.09 31.2932 29.6556C31.4281 28.9862 31.4281 3.74079 31.2932 3.07141C31.0051 1.63701 29.8527 0.438488 28.4735 0.138855C27.8482 0.00497818 3.49409 0.00497818 2.8811 0.145233ZM28.3386 2.78453C28.4674 2.87378 28.6451 3.05866 28.7371 3.19254L28.9026 3.44116V16.3635V29.2795L28.7493 29.5154C28.6635 29.6492 28.4857 29.8341 28.357 29.9297L28.118 30.1019L24.4155 30.121L20.7191 30.1401V24.938V19.7423H22.6194C23.6676 19.7423 24.5197 19.7232 24.5197 19.7041C24.5197 19.6467 25.0653 16.1595 25.1082 15.9619L25.1449 15.7898H22.9259H20.713L20.7314 14.1769C20.7498 12.6596 20.7559 12.5512 20.8908 12.2516C21.0747 11.8372 21.3996 11.4993 21.7858 11.3144C22.08 11.1742 22.1842 11.1678 23.5879 11.1487L25.0714 11.1295V9.15326V7.18335H23.5573C22.3068 7.18335 21.939 7.20885 21.4793 7.30448C19.3277 7.76986 17.6787 9.38914 17.0902 11.6268C16.9738 12.0667 16.9554 12.3344 16.9309 13.9537L16.9063 15.7898H15.0735H13.2407V17.766V19.7423H15.0796H16.9186V24.938V30.1338L10.096 30.121L3.26728 30.1019L3.02822 29.9297C2.89949 29.8341 2.72172 29.6492 2.6359 29.5154L2.48265 29.2795L2.46426 16.5038C2.45813 7.97387 2.47039 3.64517 2.5133 3.48579C2.58686 3.19254 3.0037 2.74628 3.27341 2.6634C3.38375 2.62515 8.50836 2.60602 15.7907 2.6124L28.1118 2.62515L28.3386 2.78453Z" fill="#FFD504"/>
</g>
<defs>
<clipPath id="clip0_30_51">
<rect width="31.3852" height="32.6406" fill="white" transform="translate(0 0.0432281)"/>
</clipPath>
</defs>
</svg>
