<svg width="34" height="33" viewBox="0 0 34 33" fill="none" xmlns="http://www.w3.org/2000/svg">
<g clip-path="url(#clip0_28_43)">
<path d="M10.9074 0.106991C8.80364 0.196243 7.36286 0.463997 6.14522 0.986757C5.00407 1.47764 4.32831 1.93027 3.4868 2.76541C2.35203 3.89381 1.64439 5.16245 1.19813 6.86461C0.802875 8.36913 0.713623 10.0968 0.713623 16.3635C0.713623 22.5283 0.796499 24.275 1.16626 25.7796C2.08427 29.5218 4.82557 31.906 8.86101 32.4607C10.0149 32.6137 12.4375 32.6838 17.0658 32.6838C21.369 32.6838 23.8489 32.6201 24.9645 32.4862C27.2468 32.2184 29.0319 31.4279 30.4408 30.0764C32.0282 28.5464 32.8697 26.7167 33.1757 24.1093C33.2968 23.0893 33.2968 9.48478 33.1757 8.52214C32.9271 6.57135 32.3469 4.96483 31.4289 3.73443C30.9763 3.12242 30.0073 2.19803 29.4016 1.78365C28.031 0.859255 26.3798 0.349247 24.2059 0.164368C23.1795 0.0814896 12.6478 0.0368652 10.9074 0.106991ZM24.6968 3.18617C26.5137 3.45392 27.5337 3.90656 28.5155 4.88195C29.153 5.51946 29.5036 6.08047 29.816 6.94748C30.3388 8.41376 30.3898 9.19152 30.3898 16.3954C30.3898 20.5456 30.3643 22.541 30.3069 23.2104C30.122 25.4226 29.6821 26.6147 28.6494 27.7176C27.572 28.8651 26.2268 29.4325 24.1422 29.6238C23.0138 29.7321 13.687 29.7831 11.5386 29.6939C10.5695 29.6556 9.5559 29.5919 9.28177 29.5536C8.07688 29.3879 6.91023 28.9607 6.18347 28.4316C5.73083 28.0937 5.00407 27.3032 4.73632 26.857C4.20081 25.9644 3.88205 24.7085 3.77368 23.1148C3.58242 20.2205 3.64617 10.288 3.86293 8.64326C4.09243 6.94111 4.62157 5.79359 5.62246 4.82457C6.71898 3.75993 8.15975 3.24355 10.391 3.10329C10.8755 3.07779 14.1332 3.05867 17.6395 3.07142C23.0775 3.08417 24.1167 3.09692 24.6968 3.18617Z" fill="#FFD504"/>
<path d="M24.888 5.90835C24.1676 6.27173 23.8234 6.83274 23.8234 7.6615C23.8234 8.26076 23.9636 8.61777 24.3716 9.02578C24.7796 9.42741 25.1366 9.57404 25.7359 9.57404C26.163 9.57404 26.3033 9.54854 26.6093 9.39553C27.2532 9.07678 27.6166 8.52214 27.6676 7.78263C27.7122 7.12599 27.5656 6.74349 27.1129 6.28448C26.6922 5.86372 26.3224 5.71709 25.704 5.71709C25.3598 5.71709 25.2068 5.75534 24.888 5.90835Z" fill="#FFD504"/>
<path d="M15.5421 8.11414C13.8655 8.42015 12.3801 9.20429 11.1306 10.4602C9.47304 12.1113 8.67615 14.043 8.67615 16.3635C8.67615 17.7661 8.93753 18.92 9.51766 20.0802C11.3027 23.6248 15.2298 25.4417 19.0485 24.4918C20.553 24.1157 21.7132 23.4654 22.8416 22.3753C23.8553 21.3935 24.5374 20.3225 24.9646 19.0411C25.2706 18.1167 25.3853 17.4027 25.3853 16.3635C25.3853 15.3308 25.2706 14.6104 24.9709 13.7051C24.5629 12.4811 23.97 11.5121 23.0456 10.5558C21.7834 9.25529 20.2087 8.41377 18.4747 8.10777C17.7671 7.98664 16.2307 7.98664 15.5421 8.11414ZM18.0667 11.0339C20.9865 11.595 22.9245 14.4638 22.3635 17.4027C22.0193 19.1813 20.7124 20.7624 19.0421 21.4062C18.2261 21.725 17.7543 21.8015 16.8108 21.7633C16.1414 21.7378 15.88 21.6995 15.4401 21.5592C13.5085 20.9472 12.0996 19.3853 11.7043 17.4218C11.5513 16.6632 11.6087 15.4838 11.8382 14.7698C12.4375 12.87 14.0376 11.4228 15.9438 11.0403C16.5112 10.9256 17.4929 10.9256 18.0667 11.0339Z" fill="#FFD504"/>
</g>
<defs>
<clipPath id="clip0_28_43">
<rect width="32.6406" height="32.6406" fill="white" transform="translate(0.649902 0.0432434)"/>
</clipPath>
</defs>
</svg>
