<svg width="54" height="54" viewBox="0 0 54 54" fill="none" xmlns="http://www.w3.org/2000/svg">
<g clip-path="url(#clip0_29_48)">
<path d="M2.90854 11.2405C1.94418 11.5413 1.33238 12.039 0.886492 12.8789C0.565038 13.47 0.533929 13.6152 0.533929 14.4344L0.52356 15.3261L1.78864 17.8563C4.46397 23.1655 7.17041 27.3236 10.4264 31.1085C11.5982 32.4773 14.4809 35.3393 15.8704 36.511C17.9443 38.2531 21.2211 40.5966 22.5276 41.2603C24.643 42.3179 27.3183 42.2972 29.4545 41.1877C30.3877 40.7107 31.6321 39.4871 32.0157 38.6679C32.4513 37.7761 32.5031 37.3406 32.5135 35.1734C32.5135 33.0269 32.5861 32.6328 33.0423 32.3114C33.343 32.104 33.9548 32.0936 34.2348 32.301C34.3592 32.384 35.9354 34.3438 37.7604 36.6562C39.5751 38.979 41.2653 41.0529 41.5142 41.2706C42.3645 42.0276 42.5304 42.0483 46.9271 42.0483C51.4171 42.0483 51.5104 42.038 52.4644 41.1566C53.1073 40.5759 53.4599 39.8604 53.5324 38.9893C53.6465 37.8072 53.5843 37.7139 49.5817 32.1558C47.57 29.3561 45.8798 26.9503 45.8486 26.8052C45.8072 26.66 45.8486 26.4008 45.9212 26.2141C46.0042 26.0275 47.6529 23.6632 49.6024 20.9775C51.5726 18.24 53.211 15.855 53.3251 15.5854C53.5947 14.8802 53.5739 13.7811 53.2732 13.1382C52.9206 12.3605 52.4955 11.8835 51.78 11.4998L51.1267 11.1472H46.9271H42.7274L42.209 11.3961C41.929 11.5413 41.5038 11.842 41.2757 12.0805C41.0476 12.319 39.4818 14.7662 37.7604 17.5867C36.0598 20.3761 34.5355 22.7818 34.3696 22.9373C34.017 23.2795 33.426 23.3314 33.0423 23.0618C32.5342 22.6988 32.5135 22.5018 32.5135 18.0015C32.5135 14.0299 32.5031 13.7707 32.3061 13.2315C32.0261 12.4849 31.4247 11.8316 30.6884 11.4583L30.0766 11.1472H24.84H19.6034L19.0227 11.4168C17.7991 11.9871 17.1148 13.0759 17.1148 14.4136C17.1148 15.0047 17.177 15.3158 17.3533 15.7098C17.6332 16.3216 18.3073 17.0475 18.8568 17.3274L19.2405 17.5245V19.7954C19.2405 21.7656 19.2198 22.0767 19.0746 22.1285C18.9813 22.1596 18.8983 22.1907 18.8672 22.1907C18.7946 22.1907 17.3014 20.262 16.7829 19.4947C15.7149 17.8978 14.6261 15.8239 13.7343 13.6877C13.1744 12.3293 12.5003 11.6242 11.4323 11.2613C11.0071 11.1161 10.385 11.0954 7.12893 11.1057C4.38101 11.1057 3.20926 11.1472 2.90854 11.2405ZM11.1316 13.6152C11.2871 13.7707 11.536 14.1647 11.6708 14.4966C12.1063 15.5543 13.2055 17.8252 13.755 18.7999C14.4498 20.0131 15.8289 22.0145 16.6792 23.0203C17.5399 24.0469 18.0273 24.3165 18.9916 24.3165C19.6242 24.3165 19.7901 24.275 20.236 24.0054C20.8063 23.6528 21.3455 22.8544 21.4596 22.2218C21.4907 22.0041 21.5218 20.4176 21.5218 18.7066V15.5854L20.7752 15.5335C20.3604 15.5024 19.9145 15.4195 19.7901 15.3469C19.1264 14.9321 19.1576 13.8329 19.8419 13.47C20.0493 13.3559 21.0344 13.3248 24.7882 13.3248C29.7967 13.3248 29.8692 13.3352 30.1596 13.8433C30.2529 13.9885 30.2944 15.378 30.3359 18.5096C30.3877 22.8025 30.3981 22.9892 30.6159 23.4558C31.6424 25.6956 34.5252 26.1519 36.1117 24.3269C36.3294 24.078 37.916 21.5582 39.6477 18.7481C41.3794 15.9276 42.8933 13.5529 43.0178 13.47C43.2044 13.3559 43.8888 13.3144 46.5641 13.2937C48.3892 13.273 50.0794 13.2833 50.3179 13.3248C51.023 13.4285 51.4689 14.0403 51.2926 14.6832C51.2615 14.818 49.6439 17.1304 47.7048 19.8161C45.7657 22.5018 44.0755 24.9076 43.9407 25.1564C43.8059 25.4157 43.6814 25.903 43.6399 26.2763C43.5259 27.531 43.5466 27.5621 47.5907 33.172C49.6128 35.9822 51.2926 38.3983 51.3341 38.5642C51.4171 38.9375 51.2615 39.3212 50.909 39.6011C50.6394 39.8189 50.546 39.8189 46.9374 39.8189C43.8681 39.8189 43.2044 39.7982 43.0281 39.6634C42.9037 39.5804 41.3172 37.6206 39.5025 35.2978C37.6879 32.9854 35.9976 30.9011 35.7488 30.6834C34.5563 29.636 32.6586 29.6879 31.435 30.8078C30.4914 31.6685 30.4085 31.9796 30.3359 34.7897C30.2737 37.4961 30.2425 37.6206 29.4545 38.4501C28.5627 39.4145 27.2147 39.8811 25.5763 39.7982C24.2801 39.7256 23.7512 39.5182 22.1129 38.4294C15.3831 33.9705 10.2398 28.4021 5.96755 20.9879C4.79579 18.9555 2.77374 14.9528 2.74263 14.6106C2.68042 13.9677 3.00187 13.4492 3.50998 13.3456C3.63441 13.3144 5.33501 13.3041 7.28447 13.3144L10.8308 13.3248L11.1316 13.6152Z" fill="#FFD504"/>
</g>
<defs>
<clipPath id="clip0_29_48">
<rect width="53.0919" height="53.0919" fill="white" transform="translate(0.47168)"/>
</clipPath>
</defs>
</svg>
